<mxfile host="app.diagrams.net" modified="2023-10-25T08:27:55.818Z" agent="Mozilla/5.0 (Windows NT 10.0; Win64; x64) AppleWebKit/537.36 (KHTML, like Gecko) Chrome/118.0.0.0 Safari/537.36 Edg/118.0.2088.61" etag="c1vjsny_GPnSpdVAxqX9" version="22.0.7" type="device">
  <diagram id="R2lEEEUBdFMjLlhIrx00" name="F023QC_xdm">
    <mxGraphModel dx="1670" dy="948" grid="1" gridSize="10" guides="0" tooltips="1" connect="1" arrows="1" fold="1" page="1" pageScale="1" pageWidth="6000" pageHeight="1000" math="0" shadow="0" extFonts="Permanent Marker^https://fonts.googleapis.com/css?family=Permanent+Marker">
      <root>
        <object label="" id="0">
          <mxCell />
        </object>
        <mxCell id="1" parent="0" />
        <mxCell id="OcTYDdU6IvkN5eMSKaNO-81" value="" style="rounded=0;whiteSpace=wrap;html=1;" parent="1" vertex="1">
          <mxGeometry x="480" y="600" width="40" height="80" as="geometry" />
        </mxCell>
        <mxCell id="iutqLcoYuN1xurHz5qFX-2" value="Nyelvtudás" style="ellipse;shape=doubleEllipse;margin=3;whiteSpace=wrap;html=1;align=center;" parent="1" vertex="1">
          <mxGeometry x="4440" y="360" width="120" height="40" as="geometry" />
        </mxCell>
        <mxCell id="iutqLcoYuN1xurHz5qFX-5" value="név" style="ellipse;whiteSpace=wrap;html=1;" parent="1" vertex="1">
          <mxGeometry x="220" y="520" width="80" height="40" as="geometry" />
        </mxCell>
        <mxCell id="iutqLcoYuN1xurHz5qFX-6" value="ár" style="ellipse;whiteSpace=wrap;html=1;" parent="1" vertex="1">
          <mxGeometry x="460" y="520" width="80" height="40" as="geometry" />
        </mxCell>
        <mxCell id="iutqLcoYuN1xurHz5qFX-7" value="" style="rounded=0;whiteSpace=wrap;html=1;" parent="1" vertex="1">
          <mxGeometry x="360" y="600" width="40" height="80" as="geometry" />
        </mxCell>
        <mxCell id="iutqLcoYuN1xurHz5qFX-8" value="" style="rounded=0;whiteSpace=wrap;html=1;" parent="1" vertex="1">
          <mxGeometry x="240" y="600" width="40" height="80" as="geometry" />
        </mxCell>
        <mxCell id="iutqLcoYuN1xurHz5qFX-10" value="Fesztivál" style="ellipse;whiteSpace=wrap;html=1;" parent="1" vertex="1">
          <mxGeometry x="2960" y="120" width="120" height="40" as="geometry" />
        </mxCell>
        <mxCell id="iutqLcoYuN1xurHz5qFX-11" value="Bár" style="ellipse;shape=doubleEllipse;margin=3;whiteSpace=wrap;html=1;align=center;" parent="1" vertex="1">
          <mxGeometry x="3300" y="360" width="120" height="40" as="geometry" />
        </mxCell>
        <mxCell id="iutqLcoYuN1xurHz5qFX-12" value="Alkalmazott" style="ellipse;shape=doubleEllipse;margin=3;whiteSpace=wrap;html=1;align=center;" parent="1" vertex="1">
          <mxGeometry x="2600" y="360" width="120" height="40" as="geometry" />
        </mxCell>
        <mxCell id="iutqLcoYuN1xurHz5qFX-13" value="Fesztivál" style="ellipse;shape=doubleEllipse;margin=3;whiteSpace=wrap;html=1;align=center;" parent="1" vertex="1">
          <mxGeometry x="320" y="360" width="120" height="40" as="geometry" />
        </mxCell>
        <mxCell id="iutqLcoYuN1xurHz5qFX-14" value="Résztvevő" style="ellipse;shape=doubleEllipse;margin=3;whiteSpace=wrap;html=1;align=center;" parent="1" vertex="1">
          <mxGeometry x="5060" y="360" width="120" height="40" as="geometry" />
        </mxCell>
        <mxCell id="iutqLcoYuN1xurHz5qFX-15" value="Közvélemény" style="ellipse;shape=doubleEllipse;margin=3;whiteSpace=wrap;html=1;align=center;" parent="1" vertex="1">
          <mxGeometry x="3920" y="360" width="120" height="40" as="geometry" />
        </mxCell>
        <mxCell id="iutqLcoYuN1xurHz5qFX-16" value="Tulajdonos" style="ellipse;shape=doubleEllipse;margin=3;whiteSpace=wrap;html=1;align=center;" parent="1" vertex="1">
          <mxGeometry x="1040" y="360" width="120" height="40" as="geometry" />
        </mxCell>
        <mxCell id="iutqLcoYuN1xurHz5qFX-17" value="Fellépő" style="ellipse;shape=doubleEllipse;margin=3;whiteSpace=wrap;html=1;align=center;" parent="1" vertex="1">
          <mxGeometry x="1900" y="360" width="120" height="40" as="geometry" />
        </mxCell>
        <mxCell id="5B_4mtcaILTxM5lqjwQF-1" value="helyszín" style="ellipse;whiteSpace=wrap;html=1;" parent="1" vertex="1">
          <mxGeometry x="340" y="520" width="80" height="40" as="geometry" />
        </mxCell>
        <mxCell id="5B_4mtcaILTxM5lqjwQF-2" value="név" style="ellipse;whiteSpace=wrap;html=1;" parent="1" vertex="1">
          <mxGeometry x="880" y="520" width="80" height="40" as="geometry" />
        </mxCell>
        <mxCell id="5B_4mtcaILTxM5lqjwQF-3" value="település" style="ellipse;whiteSpace=wrap;html=1;" parent="1" vertex="1">
          <mxGeometry x="5440" y="620" width="80" height="40" as="geometry" />
        </mxCell>
        <mxCell id="5B_4mtcaILTxM5lqjwQF-4" value="alapítás" style="ellipse;whiteSpace=wrap;html=1;" parent="1" vertex="1">
          <mxGeometry x="1120" y="520" width="80" height="40" as="geometry" />
        </mxCell>
        <mxCell id="5B_4mtcaILTxM5lqjwQF-5" value="név" style="ellipse;whiteSpace=wrap;html=1;" parent="1" vertex="1">
          <mxGeometry x="1800" y="520" width="80" height="40" as="geometry" />
        </mxCell>
        <mxCell id="5B_4mtcaILTxM5lqjwQF-6" value="bevétel" style="ellipse;whiteSpace=wrap;html=1;" parent="1" vertex="1">
          <mxGeometry x="1240" y="520" width="80" height="40" as="geometry" />
        </mxCell>
        <mxCell id="5B_4mtcaILTxM5lqjwQF-7" value="ország" style="ellipse;whiteSpace=wrap;html=1;" parent="1" vertex="1">
          <mxGeometry x="1920" y="520" width="80" height="40" as="geometry" />
        </mxCell>
        <mxCell id="5B_4mtcaILTxM5lqjwQF-8" value="díj" style="ellipse;whiteSpace=wrap;html=1;" parent="1" vertex="1">
          <mxGeometry x="2040" y="520" width="80" height="40" as="geometry" />
        </mxCell>
        <mxCell id="5B_4mtcaILTxM5lqjwQF-10" value="adószám" style="ellipse;whiteSpace=wrap;html=1;" parent="1" vertex="1">
          <mxGeometry x="1000" y="520" width="80" height="40" as="geometry" />
        </mxCell>
        <mxCell id="5B_4mtcaILTxM5lqjwQF-11" value="név" style="ellipse;whiteSpace=wrap;html=1;" parent="1" vertex="1">
          <mxGeometry x="4960" y="520" width="80" height="40" as="geometry" />
        </mxCell>
        <mxCell id="5B_4mtcaILTxM5lqjwQF-12" value="diákigazolvány" style="ellipse;whiteSpace=wrap;html=1;" parent="1" vertex="1">
          <mxGeometry x="5080" y="520" width="80" height="40" as="geometry" />
        </mxCell>
        <mxCell id="5B_4mtcaILTxM5lqjwQF-14" value="házszám" style="ellipse;whiteSpace=wrap;html=1;" parent="1" vertex="1">
          <mxGeometry x="5200" y="620" width="80" height="40" as="geometry" />
        </mxCell>
        <mxCell id="5B_4mtcaILTxM5lqjwQF-15" value="név" style="ellipse;whiteSpace=wrap;html=1;" parent="1" vertex="1">
          <mxGeometry x="3200" y="520" width="80" height="40" as="geometry" />
        </mxCell>
        <mxCell id="5B_4mtcaILTxM5lqjwQF-17" value="név" style="ellipse;whiteSpace=wrap;html=1;" parent="1" vertex="1">
          <mxGeometry x="2500" y="520" width="80" height="40" as="geometry" />
        </mxCell>
        <mxCell id="5B_4mtcaILTxM5lqjwQF-18" value="fizetés" style="ellipse;whiteSpace=wrap;html=1;" parent="1" vertex="1">
          <mxGeometry x="2740" y="520" width="80" height="40" as="geometry" />
        </mxCell>
        <mxCell id="5B_4mtcaILTxM5lqjwQF-19" value="utca" style="ellipse;whiteSpace=wrap;html=1;" parent="1" vertex="1">
          <mxGeometry x="5320" y="620" width="80" height="40" as="geometry" />
        </mxCell>
        <mxCell id="5B_4mtcaILTxM5lqjwQF-20" value="kérdező" style="ellipse;whiteSpace=wrap;html=1;" parent="1" vertex="1">
          <mxGeometry x="3880" y="520" width="80" height="40" as="geometry" />
        </mxCell>
        <mxCell id="5B_4mtcaILTxM5lqjwQF-21" value="szint" style="ellipse;whiteSpace=wrap;html=1;" parent="1" vertex="1">
          <mxGeometry x="4460" y="520" width="80" height="40" as="geometry" />
        </mxCell>
        <mxCell id="5B_4mtcaILTxM5lqjwQF-22" value="cég" style="ellipse;whiteSpace=wrap;html=1;" parent="1" vertex="1">
          <mxGeometry x="3440" y="520" width="80" height="40" as="geometry" />
        </mxCell>
        <mxCell id="5B_4mtcaILTxM5lqjwQF-24" value="lakcím" style="ellipse;whiteSpace=wrap;html=1;" parent="1" vertex="1">
          <mxGeometry x="5320" y="520" width="80" height="40" as="geometry" />
        </mxCell>
        <mxCell id="5B_4mtcaILTxM5lqjwQF-25" value="nyelv" style="ellipse;whiteSpace=wrap;html=1;" parent="1" vertex="1">
          <mxGeometry x="4580" y="520" width="80" height="40" as="geometry" />
        </mxCell>
        <mxCell id="5B_4mtcaILTxM5lqjwQF-28" value="&lt;u&gt;FESZ_ID&lt;/u&gt;" style="rhombus;whiteSpace=wrap;html=1;" parent="1" vertex="1">
          <mxGeometry x="100" y="520" width="70" height="70" as="geometry" />
        </mxCell>
        <mxCell id="5B_4mtcaILTxM5lqjwQF-32" value="&lt;u&gt;T_ID&lt;/u&gt;" style="rhombus;whiteSpace=wrap;html=1;" parent="1" vertex="1">
          <mxGeometry x="760" y="520" width="70" height="70" as="geometry" />
        </mxCell>
        <mxCell id="5B_4mtcaILTxM5lqjwQF-33" value="&lt;u&gt;NY_ID&lt;/u&gt;" style="rhombus;whiteSpace=wrap;html=1;" parent="1" vertex="1">
          <mxGeometry x="4340" y="520" width="70" height="70" as="geometry" />
        </mxCell>
        <mxCell id="5B_4mtcaILTxM5lqjwQF-36" value="&lt;u&gt;R_ID&lt;/u&gt;" style="rhombus;whiteSpace=wrap;html=1;" parent="1" vertex="1">
          <mxGeometry x="4840" y="520" width="70" height="70" as="geometry" />
        </mxCell>
        <mxCell id="5B_4mtcaILTxM5lqjwQF-196" style="edgeStyle=orthogonalEdgeStyle;rounded=0;orthogonalLoop=1;jettySize=auto;html=1;exitX=0.5;exitY=1;exitDx=0;exitDy=0;entryX=1;entryY=0.5;entryDx=0;entryDy=0;" parent="1" source="5B_4mtcaILTxM5lqjwQF-37" target="5B_4mtcaILTxM5lqjwQF-28" edge="1">
          <mxGeometry relative="1" as="geometry">
            <Array as="points">
              <mxPoint x="1395" y="710" />
              <mxPoint x="190" y="710" />
              <mxPoint x="190" y="555" />
            </Array>
          </mxGeometry>
        </mxCell>
        <mxCell id="5B_4mtcaILTxM5lqjwQF-37" value="fesztivál" style="rhombus;whiteSpace=wrap;html=1;" parent="1" vertex="1">
          <mxGeometry x="1360" y="520" width="70" height="70" as="geometry" />
        </mxCell>
        <mxCell id="5B_4mtcaILTxM5lqjwQF-38" value="&lt;u&gt;FEL_ID&lt;/u&gt;" style="rhombus;whiteSpace=wrap;html=1;" parent="1" vertex="1">
          <mxGeometry x="1680" y="520" width="70" height="70" as="geometry" />
        </mxCell>
        <mxCell id="5B_4mtcaILTxM5lqjwQF-39" value="&lt;u&gt;A_ID&lt;/u&gt;" style="rhombus;whiteSpace=wrap;html=1;" parent="1" vertex="1">
          <mxGeometry x="2380" y="520" width="70" height="70" as="geometry" />
        </mxCell>
        <mxCell id="5B_4mtcaILTxM5lqjwQF-40" value="&lt;u&gt;B_ID&lt;/u&gt;" style="rhombus;whiteSpace=wrap;html=1;" parent="1" vertex="1">
          <mxGeometry x="3080" y="520" width="70" height="70" as="geometry" />
        </mxCell>
        <mxCell id="5B_4mtcaILTxM5lqjwQF-44" value="&lt;u&gt;K_ID&lt;/u&gt;" style="rhombus;whiteSpace=wrap;html=1;" parent="1" vertex="1">
          <mxGeometry x="3760" y="520" width="70" height="70" as="geometry" />
        </mxCell>
        <mxCell id="5B_4mtcaILTxM5lqjwQF-53" value="" style="rounded=0;whiteSpace=wrap;html=1;" parent="1" vertex="1">
          <mxGeometry x="1140" y="600" width="40" height="80" as="geometry" />
        </mxCell>
        <mxCell id="5B_4mtcaILTxM5lqjwQF-54" value="" style="rounded=0;whiteSpace=wrap;html=1;" parent="1" vertex="1">
          <mxGeometry x="1020" y="600" width="40" height="80" as="geometry" />
        </mxCell>
        <mxCell id="5B_4mtcaILTxM5lqjwQF-55" value="" style="rounded=0;whiteSpace=wrap;html=1;" parent="1" vertex="1">
          <mxGeometry x="900" y="600" width="40" height="80" as="geometry" />
        </mxCell>
        <mxCell id="5B_4mtcaILTxM5lqjwQF-56" value="" style="rounded=0;whiteSpace=wrap;html=1;" parent="1" vertex="1">
          <mxGeometry x="2060" y="600" width="40" height="80" as="geometry" />
        </mxCell>
        <mxCell id="5B_4mtcaILTxM5lqjwQF-57" value="" style="rounded=0;whiteSpace=wrap;html=1;" parent="1" vertex="1">
          <mxGeometry x="1940" y="600" width="40" height="80" as="geometry" />
        </mxCell>
        <mxCell id="5B_4mtcaILTxM5lqjwQF-58" value="" style="rounded=0;whiteSpace=wrap;html=1;" parent="1" vertex="1">
          <mxGeometry x="1820" y="600" width="40" height="80" as="geometry" />
        </mxCell>
        <mxCell id="5B_4mtcaILTxM5lqjwQF-59" value="" style="rounded=0;whiteSpace=wrap;html=1;" parent="1" vertex="1">
          <mxGeometry x="3460" y="600" width="40" height="80" as="geometry" />
        </mxCell>
        <mxCell id="5B_4mtcaILTxM5lqjwQF-60" value="" style="rounded=0;whiteSpace=wrap;html=1;" parent="1" vertex="1">
          <mxGeometry x="3340" y="600" width="40" height="80" as="geometry" />
        </mxCell>
        <mxCell id="5B_4mtcaILTxM5lqjwQF-61" value="" style="rounded=0;whiteSpace=wrap;html=1;" parent="1" vertex="1">
          <mxGeometry x="3220" y="600" width="40" height="80" as="geometry" />
        </mxCell>
        <mxCell id="5B_4mtcaILTxM5lqjwQF-62" value="" style="rounded=0;whiteSpace=wrap;html=1;" parent="1" vertex="1">
          <mxGeometry x="4600" y="600" width="40" height="80" as="geometry" />
        </mxCell>
        <mxCell id="5B_4mtcaILTxM5lqjwQF-63" value="" style="rounded=0;whiteSpace=wrap;html=1;" parent="1" vertex="1">
          <mxGeometry x="4480" y="600" width="40" height="80" as="geometry" />
        </mxCell>
        <mxCell id="5B_4mtcaILTxM5lqjwQF-64" value="" style="rounded=0;whiteSpace=wrap;html=1;" parent="1" vertex="1">
          <mxGeometry x="1260" y="600" width="40" height="80" as="geometry" />
        </mxCell>
        <mxCell id="5B_4mtcaILTxM5lqjwQF-65" value="" style="rounded=0;whiteSpace=wrap;html=1;" parent="1" vertex="1">
          <mxGeometry x="5100" y="600" width="40" height="80" as="geometry" />
        </mxCell>
        <mxCell id="5B_4mtcaILTxM5lqjwQF-66" value="" style="rounded=0;whiteSpace=wrap;html=1;" parent="1" vertex="1">
          <mxGeometry x="4980" y="600" width="40" height="80" as="geometry" />
        </mxCell>
        <mxCell id="5B_4mtcaILTxM5lqjwQF-70" value="" style="rounded=0;whiteSpace=wrap;html=1;" parent="1" vertex="1">
          <mxGeometry x="2760" y="600" width="40" height="80" as="geometry" />
        </mxCell>
        <mxCell id="5B_4mtcaILTxM5lqjwQF-71" value="" style="rounded=0;whiteSpace=wrap;html=1;" parent="1" vertex="1">
          <mxGeometry x="2640" y="600" width="40" height="80" as="geometry" />
        </mxCell>
        <mxCell id="5B_4mtcaILTxM5lqjwQF-72" value="" style="rounded=0;whiteSpace=wrap;html=1;" parent="1" vertex="1">
          <mxGeometry x="2520" y="600" width="40" height="80" as="geometry" />
        </mxCell>
        <mxCell id="5B_4mtcaILTxM5lqjwQF-73" value="" style="endArrow=none;html=1;rounded=0;exitX=0.5;exitY=0;exitDx=0;exitDy=0;entryX=0;entryY=0.5;entryDx=0;entryDy=0;" parent="1" source="5B_4mtcaILTxM5lqjwQF-28" target="iutqLcoYuN1xurHz5qFX-13" edge="1">
          <mxGeometry relative="1" as="geometry">
            <mxPoint x="190" y="500" as="sourcePoint" />
            <mxPoint x="350" y="500" as="targetPoint" />
          </mxGeometry>
        </mxCell>
        <mxCell id="5B_4mtcaILTxM5lqjwQF-75" value="" style="endArrow=none;html=1;rounded=0;exitX=0.5;exitY=0;exitDx=0;exitDy=0;entryX=0.5;entryY=1;entryDx=0;entryDy=0;" parent="1" source="5B_4mtcaILTxM5lqjwQF-55" target="5B_4mtcaILTxM5lqjwQF-2" edge="1">
          <mxGeometry relative="1" as="geometry">
            <mxPoint x="810" y="720" as="sourcePoint" />
            <mxPoint x="970" y="720" as="targetPoint" />
          </mxGeometry>
        </mxCell>
        <mxCell id="5B_4mtcaILTxM5lqjwQF-76" value="" style="endArrow=none;html=1;rounded=0;exitX=0.5;exitY=0;exitDx=0;exitDy=0;entryX=0.5;entryY=1;entryDx=0;entryDy=0;" parent="1" source="5B_4mtcaILTxM5lqjwQF-58" target="5B_4mtcaILTxM5lqjwQF-5" edge="1">
          <mxGeometry relative="1" as="geometry">
            <mxPoint x="2050" y="910" as="sourcePoint" />
            <mxPoint x="2210" y="910" as="targetPoint" />
          </mxGeometry>
        </mxCell>
        <mxCell id="5B_4mtcaILTxM5lqjwQF-77" value="" style="endArrow=none;html=1;rounded=0;exitX=0.5;exitY=0;exitDx=0;exitDy=0;entryX=0.5;entryY=1;entryDx=0;entryDy=0;" parent="1" source="5B_4mtcaILTxM5lqjwQF-54" target="5B_4mtcaILTxM5lqjwQF-10" edge="1">
          <mxGeometry relative="1" as="geometry">
            <mxPoint x="1060" y="840" as="sourcePoint" />
            <mxPoint x="1220" y="840" as="targetPoint" />
          </mxGeometry>
        </mxCell>
        <mxCell id="5B_4mtcaILTxM5lqjwQF-78" value="" style="endArrow=none;html=1;rounded=0;exitX=0.5;exitY=0;exitDx=0;exitDy=0;entryX=0.5;entryY=1;entryDx=0;entryDy=0;" parent="1" source="5B_4mtcaILTxM5lqjwQF-53" target="5B_4mtcaILTxM5lqjwQF-4" edge="1">
          <mxGeometry relative="1" as="geometry">
            <mxPoint x="1130" y="610" as="sourcePoint" />
            <mxPoint x="1290" y="610" as="targetPoint" />
          </mxGeometry>
        </mxCell>
        <mxCell id="5B_4mtcaILTxM5lqjwQF-79" value="" style="endArrow=none;html=1;rounded=0;exitX=0.5;exitY=0;exitDx=0;exitDy=0;entryX=0.5;entryY=1;entryDx=0;entryDy=0;" parent="1" source="5B_4mtcaILTxM5lqjwQF-64" target="5B_4mtcaILTxM5lqjwQF-6" edge="1">
          <mxGeometry relative="1" as="geometry">
            <mxPoint x="1300" y="780" as="sourcePoint" />
            <mxPoint x="1460" y="780" as="targetPoint" />
          </mxGeometry>
        </mxCell>
        <mxCell id="5B_4mtcaILTxM5lqjwQF-80" value="" style="endArrow=none;html=1;rounded=0;exitX=0.5;exitY=0;exitDx=0;exitDy=0;entryX=0.5;entryY=1;entryDx=0;entryDy=0;" parent="1" source="5B_4mtcaILTxM5lqjwQF-57" target="5B_4mtcaILTxM5lqjwQF-7" edge="1">
          <mxGeometry relative="1" as="geometry">
            <mxPoint x="2050" y="930" as="sourcePoint" />
            <mxPoint x="2210" y="930" as="targetPoint" />
          </mxGeometry>
        </mxCell>
        <mxCell id="5B_4mtcaILTxM5lqjwQF-82" value="" style="endArrow=none;html=1;rounded=0;exitX=0.5;exitY=0;exitDx=0;exitDy=0;entryX=0.5;entryY=1;entryDx=0;entryDy=0;" parent="1" source="5B_4mtcaILTxM5lqjwQF-56" target="5B_4mtcaILTxM5lqjwQF-8" edge="1">
          <mxGeometry relative="1" as="geometry">
            <mxPoint x="2070" y="950" as="sourcePoint" />
            <mxPoint x="2230" y="950" as="targetPoint" />
          </mxGeometry>
        </mxCell>
        <mxCell id="5B_4mtcaILTxM5lqjwQF-86" value="" style="endArrow=none;html=1;rounded=0;exitX=0.5;exitY=0;exitDx=0;exitDy=0;entryX=0;entryY=0.5;entryDx=0;entryDy=0;" parent="1" source="5B_4mtcaILTxM5lqjwQF-32" target="iutqLcoYuN1xurHz5qFX-16" edge="1">
          <mxGeometry relative="1" as="geometry">
            <mxPoint x="800" y="480" as="sourcePoint" />
            <mxPoint x="960" y="480" as="targetPoint" />
          </mxGeometry>
        </mxCell>
        <mxCell id="5B_4mtcaILTxM5lqjwQF-89" value="" style="endArrow=none;html=1;rounded=0;exitX=1;exitY=0.5;exitDx=0;exitDy=0;entryX=0.5;entryY=0;entryDx=0;entryDy=0;" parent="1" source="iutqLcoYuN1xurHz5qFX-16" target="5B_4mtcaILTxM5lqjwQF-37" edge="1">
          <mxGeometry relative="1" as="geometry">
            <mxPoint x="1290" y="410" as="sourcePoint" />
            <mxPoint x="1450" y="410" as="targetPoint" />
          </mxGeometry>
        </mxCell>
        <mxCell id="5B_4mtcaILTxM5lqjwQF-91" value="" style="endArrow=none;html=1;rounded=0;exitX=0.5;exitY=0;exitDx=0;exitDy=0;entryX=0.5;entryY=1;entryDx=0;entryDy=0;" parent="1" source="5B_4mtcaILTxM5lqjwQF-71" target="5B_4mtcaILTxM5lqjwQF-149" edge="1">
          <mxGeometry relative="1" as="geometry">
            <mxPoint x="2400" y="740" as="sourcePoint" />
            <mxPoint x="2560" y="740" as="targetPoint" />
          </mxGeometry>
        </mxCell>
        <mxCell id="5B_4mtcaILTxM5lqjwQF-92" value="" style="endArrow=none;html=1;rounded=0;exitX=0.5;exitY=0;exitDx=0;exitDy=0;entryX=0.5;entryY=1;entryDx=0;entryDy=0;" parent="1" source="iutqLcoYuN1xurHz5qFX-8" target="iutqLcoYuN1xurHz5qFX-5" edge="1">
          <mxGeometry relative="1" as="geometry">
            <mxPoint x="280" y="780" as="sourcePoint" />
            <mxPoint x="440" y="780" as="targetPoint" />
          </mxGeometry>
        </mxCell>
        <mxCell id="5B_4mtcaILTxM5lqjwQF-93" value="" style="endArrow=none;html=1;rounded=0;exitX=0.5;exitY=0;exitDx=0;exitDy=0;entryX=0.5;entryY=1;entryDx=0;entryDy=0;" parent="1" source="iutqLcoYuN1xurHz5qFX-7" target="5B_4mtcaILTxM5lqjwQF-1" edge="1">
          <mxGeometry relative="1" as="geometry">
            <mxPoint x="370" y="750" as="sourcePoint" />
            <mxPoint x="530" y="750" as="targetPoint" />
          </mxGeometry>
        </mxCell>
        <mxCell id="5B_4mtcaILTxM5lqjwQF-94" value="" style="endArrow=none;html=1;rounded=0;exitX=0.5;exitY=0;exitDx=0;exitDy=0;entryX=0.5;entryY=1;entryDx=0;entryDy=0;" parent="1" source="5B_4mtcaILTxM5lqjwQF-7" target="iutqLcoYuN1xurHz5qFX-17" edge="1">
          <mxGeometry relative="1" as="geometry">
            <mxPoint x="1960" y="450" as="sourcePoint" />
            <mxPoint x="2120" y="450" as="targetPoint" />
          </mxGeometry>
        </mxCell>
        <mxCell id="5B_4mtcaILTxM5lqjwQF-95" value="" style="endArrow=none;html=1;rounded=0;exitX=0.5;exitY=0;exitDx=0;exitDy=0;entryX=0.5;entryY=1;entryDx=0;entryDy=0;" parent="1" source="OcTYDdU6IvkN5eMSKaNO-81" target="iutqLcoYuN1xurHz5qFX-6" edge="1">
          <mxGeometry relative="1" as="geometry">
            <mxPoint x="520" y="710" as="sourcePoint" />
            <mxPoint x="680" y="710" as="targetPoint" />
          </mxGeometry>
        </mxCell>
        <mxCell id="5B_4mtcaILTxM5lqjwQF-96" value="" style="endArrow=none;html=1;rounded=0;exitX=0.5;exitY=0;exitDx=0;exitDy=0;entryX=0;entryY=0.5;entryDx=0;entryDy=0;" parent="1" source="5B_4mtcaILTxM5lqjwQF-38" target="iutqLcoYuN1xurHz5qFX-17" edge="1">
          <mxGeometry relative="1" as="geometry">
            <mxPoint x="1720" y="430" as="sourcePoint" />
            <mxPoint x="1880" y="430" as="targetPoint" />
          </mxGeometry>
        </mxCell>
        <mxCell id="5B_4mtcaILTxM5lqjwQF-97" value="" style="endArrow=none;html=1;rounded=0;exitX=0.5;exitY=0;exitDx=0;exitDy=0;entryX=0.5;entryY=1;entryDx=0;entryDy=0;" parent="1" source="5B_4mtcaILTxM5lqjwQF-5" target="iutqLcoYuN1xurHz5qFX-17" edge="1">
          <mxGeometry relative="1" as="geometry">
            <mxPoint x="1820" y="470" as="sourcePoint" />
            <mxPoint x="1980" y="470" as="targetPoint" />
          </mxGeometry>
        </mxCell>
        <mxCell id="5B_4mtcaILTxM5lqjwQF-98" value="" style="endArrow=none;html=1;rounded=0;entryX=0.5;entryY=0;entryDx=0;entryDy=0;exitX=1;exitY=0.5;exitDx=0;exitDy=0;" parent="1" source="iutqLcoYuN1xurHz5qFX-17" target="5B_4mtcaILTxM5lqjwQF-124" edge="1">
          <mxGeometry relative="1" as="geometry">
            <mxPoint x="2080" y="430" as="sourcePoint" />
            <mxPoint x="2240" y="430" as="targetPoint" />
          </mxGeometry>
        </mxCell>
        <mxCell id="5B_4mtcaILTxM5lqjwQF-99" value="" style="endArrow=none;html=1;rounded=0;exitX=0.5;exitY=1;exitDx=0;exitDy=0;entryX=0.5;entryY=0;entryDx=0;entryDy=0;" parent="1" source="iutqLcoYuN1xurHz5qFX-17" target="5B_4mtcaILTxM5lqjwQF-8" edge="1">
          <mxGeometry relative="1" as="geometry">
            <mxPoint x="2030" y="440" as="sourcePoint" />
            <mxPoint x="2190" y="440" as="targetPoint" />
          </mxGeometry>
        </mxCell>
        <mxCell id="5B_4mtcaILTxM5lqjwQF-100" value="" style="endArrow=none;html=1;rounded=0;exitX=0.5;exitY=0;exitDx=0;exitDy=0;entryX=0.5;entryY=1;entryDx=0;entryDy=0;" parent="1" source="5B_4mtcaILTxM5lqjwQF-72" target="5B_4mtcaILTxM5lqjwQF-17" edge="1">
          <mxGeometry relative="1" as="geometry">
            <mxPoint x="2410" y="700" as="sourcePoint" />
            <mxPoint x="2570" y="700" as="targetPoint" />
          </mxGeometry>
        </mxCell>
        <mxCell id="5B_4mtcaILTxM5lqjwQF-198" style="edgeStyle=orthogonalEdgeStyle;rounded=0;orthogonalLoop=1;jettySize=auto;html=1;exitX=0.5;exitY=1;exitDx=0;exitDy=0;entryX=0.5;entryY=1;entryDx=0;entryDy=0;" parent="1" source="5B_4mtcaILTxM5lqjwQF-124" target="5B_4mtcaILTxM5lqjwQF-28" edge="1">
          <mxGeometry relative="1" as="geometry">
            <mxPoint x="2220" y="720" as="sourcePoint" />
            <mxPoint x="110" y="700" as="targetPoint" />
            <Array as="points">
              <mxPoint x="2195" y="740" />
              <mxPoint x="135" y="740" />
            </Array>
          </mxGeometry>
        </mxCell>
        <mxCell id="5B_4mtcaILTxM5lqjwQF-124" value="fesztivál" style="rhombus;whiteSpace=wrap;html=1;" parent="1" vertex="1">
          <mxGeometry x="2160" y="520" width="70" height="70" as="geometry" />
        </mxCell>
        <mxCell id="5B_4mtcaILTxM5lqjwQF-126" value="" style="endArrow=none;html=1;rounded=0;exitX=0.5;exitY=0;exitDx=0;exitDy=0;entryX=0.5;entryY=1;entryDx=0;entryDy=0;" parent="1" source="5B_4mtcaILTxM5lqjwQF-149" target="iutqLcoYuN1xurHz5qFX-12" edge="1">
          <mxGeometry relative="1" as="geometry">
            <mxPoint x="2580" y="500" as="sourcePoint" />
            <mxPoint x="2740" y="500" as="targetPoint" />
          </mxGeometry>
        </mxCell>
        <mxCell id="5B_4mtcaILTxM5lqjwQF-127" value="" style="endArrow=none;html=1;rounded=0;exitX=0.5;exitY=0;exitDx=0;exitDy=0;entryX=0;entryY=0.5;entryDx=0;entryDy=0;" parent="1" source="5B_4mtcaILTxM5lqjwQF-39" target="iutqLcoYuN1xurHz5qFX-12" edge="1">
          <mxGeometry relative="1" as="geometry">
            <mxPoint x="2300" y="680" as="sourcePoint" />
            <mxPoint x="2460" y="680" as="targetPoint" />
          </mxGeometry>
        </mxCell>
        <mxCell id="5B_4mtcaILTxM5lqjwQF-128" value="" style="endArrow=none;html=1;rounded=0;exitX=0.5;exitY=0;exitDx=0;exitDy=0;entryX=0.5;entryY=1;entryDx=0;entryDy=0;" parent="1" source="5B_4mtcaILTxM5lqjwQF-17" target="iutqLcoYuN1xurHz5qFX-12" edge="1">
          <mxGeometry relative="1" as="geometry">
            <mxPoint x="2370" y="660" as="sourcePoint" />
            <mxPoint x="2530" y="660" as="targetPoint" />
          </mxGeometry>
        </mxCell>
        <mxCell id="5B_4mtcaILTxM5lqjwQF-129" value="" style="endArrow=none;html=1;rounded=0;exitX=0.5;exitY=0;exitDx=0;exitDy=0;entryX=1;entryY=0.5;entryDx=0;entryDy=0;" parent="1" source="5B_4mtcaILTxM5lqjwQF-150" target="iutqLcoYuN1xurHz5qFX-12" edge="1">
          <mxGeometry relative="1" as="geometry">
            <mxPoint x="2750" y="440" as="sourcePoint" />
            <mxPoint x="2910" y="440" as="targetPoint" />
          </mxGeometry>
        </mxCell>
        <mxCell id="5B_4mtcaILTxM5lqjwQF-130" value="" style="endArrow=none;html=1;rounded=0;exitX=0.5;exitY=0;exitDx=0;exitDy=0;entryX=0.5;entryY=1;entryDx=0;entryDy=0;" parent="1" source="5B_4mtcaILTxM5lqjwQF-18" target="iutqLcoYuN1xurHz5qFX-12" edge="1">
          <mxGeometry relative="1" as="geometry">
            <mxPoint x="2740" y="470" as="sourcePoint" />
            <mxPoint x="2900" y="470" as="targetPoint" />
          </mxGeometry>
        </mxCell>
        <mxCell id="5B_4mtcaILTxM5lqjwQF-131" value="" style="endArrow=none;html=1;rounded=0;exitX=0.5;exitY=0;exitDx=0;exitDy=0;entryX=0.5;entryY=1;entryDx=0;entryDy=0;" parent="1" source="5B_4mtcaILTxM5lqjwQF-70" target="5B_4mtcaILTxM5lqjwQF-18" edge="1">
          <mxGeometry relative="1" as="geometry">
            <mxPoint x="2570" y="770" as="sourcePoint" />
            <mxPoint x="2730" y="770" as="targetPoint" />
          </mxGeometry>
        </mxCell>
        <mxCell id="5B_4mtcaILTxM5lqjwQF-133" value="" style="endArrow=none;html=1;rounded=0;exitX=0.5;exitY=0;exitDx=0;exitDy=0;entryX=0;entryY=0.5;entryDx=0;entryDy=0;" parent="1" source="5B_4mtcaILTxM5lqjwQF-44" target="iutqLcoYuN1xurHz5qFX-15" edge="1">
          <mxGeometry relative="1" as="geometry">
            <mxPoint x="3820" y="750" as="sourcePoint" />
            <mxPoint x="3980" y="750" as="targetPoint" />
          </mxGeometry>
        </mxCell>
        <mxCell id="5B_4mtcaILTxM5lqjwQF-134" value="" style="endArrow=none;html=1;rounded=0;exitX=0.5;exitY=0;exitDx=0;exitDy=0;entryX=0.5;entryY=1;entryDx=0;entryDy=0;" parent="1" source="5B_4mtcaILTxM5lqjwQF-157" target="5B_4mtcaILTxM5lqjwQF-20" edge="1">
          <mxGeometry relative="1" as="geometry">
            <mxPoint x="3830" y="820" as="sourcePoint" />
            <mxPoint x="3990" y="820" as="targetPoint" />
          </mxGeometry>
        </mxCell>
        <mxCell id="5B_4mtcaILTxM5lqjwQF-135" value="" style="endArrow=none;html=1;rounded=0;exitX=0.5;exitY=0;exitDx=0;exitDy=0;entryX=0.5;entryY=1;entryDx=0;entryDy=0;" parent="1" source="5B_4mtcaILTxM5lqjwQF-20" target="iutqLcoYuN1xurHz5qFX-15" edge="1">
          <mxGeometry relative="1" as="geometry">
            <mxPoint x="3840" y="770" as="sourcePoint" />
            <mxPoint x="4000" y="770" as="targetPoint" />
          </mxGeometry>
        </mxCell>
        <mxCell id="5B_4mtcaILTxM5lqjwQF-136" value="" style="endArrow=none;html=1;rounded=0;exitX=0.5;exitY=0;exitDx=0;exitDy=0;entryX=0.5;entryY=1;entryDx=0;entryDy=0;" parent="1" source="5B_4mtcaILTxM5lqjwQF-168" target="iutqLcoYuN1xurHz5qFX-15" edge="1">
          <mxGeometry relative="1" as="geometry">
            <mxPoint x="3850" y="780" as="sourcePoint" />
            <mxPoint x="4010" y="780" as="targetPoint" />
          </mxGeometry>
        </mxCell>
        <mxCell id="5B_4mtcaILTxM5lqjwQF-137" value="" style="endArrow=none;html=1;rounded=0;exitX=0.5;exitY=0;exitDx=0;exitDy=0;entryX=1;entryY=0.5;entryDx=0;entryDy=0;" parent="1" source="5B_4mtcaILTxM5lqjwQF-166" target="iutqLcoYuN1xurHz5qFX-15" edge="1">
          <mxGeometry relative="1" as="geometry">
            <mxPoint x="3860" y="790" as="sourcePoint" />
            <mxPoint x="4020" y="790" as="targetPoint" />
          </mxGeometry>
        </mxCell>
        <mxCell id="5B_4mtcaILTxM5lqjwQF-141" value="" style="endArrow=none;html=1;rounded=0;exitX=0.5;exitY=0;exitDx=0;exitDy=0;entryX=0;entryY=0.5;entryDx=0;entryDy=0;" parent="1" source="5B_4mtcaILTxM5lqjwQF-40" target="iutqLcoYuN1xurHz5qFX-11" edge="1">
          <mxGeometry relative="1" as="geometry">
            <mxPoint x="3440" y="780" as="sourcePoint" />
            <mxPoint x="3600" y="780" as="targetPoint" />
          </mxGeometry>
        </mxCell>
        <mxCell id="5B_4mtcaILTxM5lqjwQF-142" value="" style="endArrow=none;html=1;rounded=0;exitX=0.5;exitY=0;exitDx=0;exitDy=0;entryX=0.5;entryY=1;entryDx=0;entryDy=0;" parent="1" source="5B_4mtcaILTxM5lqjwQF-22" target="iutqLcoYuN1xurHz5qFX-11" edge="1">
          <mxGeometry relative="1" as="geometry">
            <mxPoint x="3450" y="830" as="sourcePoint" />
            <mxPoint x="3610" y="830" as="targetPoint" />
          </mxGeometry>
        </mxCell>
        <mxCell id="5B_4mtcaILTxM5lqjwQF-143" value="" style="endArrow=none;html=1;rounded=0;exitX=0.5;exitY=0;exitDx=0;exitDy=0;entryX=1;entryY=0.5;entryDx=0;entryDy=0;" parent="1" source="5B_4mtcaILTxM5lqjwQF-164" target="iutqLcoYuN1xurHz5qFX-11" edge="1">
          <mxGeometry relative="1" as="geometry">
            <mxPoint x="3460" y="800" as="sourcePoint" />
            <mxPoint x="3620" y="800" as="targetPoint" />
          </mxGeometry>
        </mxCell>
        <mxCell id="5B_4mtcaILTxM5lqjwQF-144" value="" style="endArrow=none;html=1;rounded=0;exitX=0.5;exitY=0;exitDx=0;exitDy=0;entryX=0.5;entryY=1;entryDx=0;entryDy=0;" parent="1" source="5B_4mtcaILTxM5lqjwQF-15" target="iutqLcoYuN1xurHz5qFX-11" edge="1">
          <mxGeometry relative="1" as="geometry">
            <mxPoint x="3470" y="810" as="sourcePoint" />
            <mxPoint x="3630" y="810" as="targetPoint" />
          </mxGeometry>
        </mxCell>
        <mxCell id="5B_4mtcaILTxM5lqjwQF-145" value="" style="endArrow=none;html=1;rounded=0;entryX=0.5;entryY=0;entryDx=0;entryDy=0;exitX=0.5;exitY=1;exitDx=0;exitDy=0;" parent="1" source="iutqLcoYuN1xurHz5qFX-11" target="5B_4mtcaILTxM5lqjwQF-163" edge="1">
          <mxGeometry relative="1" as="geometry">
            <mxPoint x="3480" y="820" as="sourcePoint" />
            <mxPoint x="3640" y="820" as="targetPoint" />
          </mxGeometry>
        </mxCell>
        <mxCell id="5B_4mtcaILTxM5lqjwQF-146" value="" style="endArrow=none;html=1;rounded=0;exitX=0.5;exitY=0;exitDx=0;exitDy=0;entryX=0.5;entryY=1;entryDx=0;entryDy=0;" parent="1" source="5B_4mtcaILTxM5lqjwQF-60" target="5B_4mtcaILTxM5lqjwQF-163" edge="1">
          <mxGeometry relative="1" as="geometry">
            <mxPoint x="3450" y="850" as="sourcePoint" />
            <mxPoint x="3610" y="850" as="targetPoint" />
          </mxGeometry>
        </mxCell>
        <mxCell id="5B_4mtcaILTxM5lqjwQF-147" value="" style="endArrow=none;html=1;rounded=0;exitX=0.5;exitY=0;exitDx=0;exitDy=0;entryX=0.5;entryY=1;entryDx=0;entryDy=0;" parent="1" source="5B_4mtcaILTxM5lqjwQF-61" target="5B_4mtcaILTxM5lqjwQF-15" edge="1">
          <mxGeometry relative="1" as="geometry">
            <mxPoint x="3290" y="750" as="sourcePoint" />
            <mxPoint x="3450" y="750" as="targetPoint" />
          </mxGeometry>
        </mxCell>
        <mxCell id="5B_4mtcaILTxM5lqjwQF-148" value="" style="endArrow=none;html=1;rounded=0;exitX=0.5;exitY=0;exitDx=0;exitDy=0;entryX=0.5;entryY=1;entryDx=0;entryDy=0;" parent="1" source="5B_4mtcaILTxM5lqjwQF-59" target="5B_4mtcaILTxM5lqjwQF-22" edge="1">
          <mxGeometry relative="1" as="geometry">
            <mxPoint x="3450" y="710" as="sourcePoint" />
            <mxPoint x="3610" y="710" as="targetPoint" />
          </mxGeometry>
        </mxCell>
        <mxCell id="5B_4mtcaILTxM5lqjwQF-149" value="műszak" style="ellipse;shape=doubleEllipse;margin=3;whiteSpace=wrap;html=1;align=center;" parent="1" vertex="1">
          <mxGeometry x="2620" y="520" width="80" height="40" as="geometry" />
        </mxCell>
        <mxCell id="5B_4mtcaILTxM5lqjwQF-203" style="edgeStyle=orthogonalEdgeStyle;rounded=0;orthogonalLoop=1;jettySize=auto;html=1;exitX=0.5;exitY=1;exitDx=0;exitDy=0;entryX=0.5;entryY=1;entryDx=0;entryDy=0;" parent="1" source="5B_4mtcaILTxM5lqjwQF-150" target="5B_4mtcaILTxM5lqjwQF-40" edge="1">
          <mxGeometry relative="1" as="geometry">
            <Array as="points">
              <mxPoint x="2900" y="670" />
              <mxPoint x="3100" y="670" />
            </Array>
          </mxGeometry>
        </mxCell>
        <mxCell id="5B_4mtcaILTxM5lqjwQF-150" value="munkahely" style="rhombus;whiteSpace=wrap;html=1;" parent="1" vertex="1">
          <mxGeometry x="2860" y="520" width="70" height="70" as="geometry" />
        </mxCell>
        <mxCell id="5B_4mtcaILTxM5lqjwQF-157" value="" style="rounded=0;whiteSpace=wrap;html=1;" parent="1" vertex="1">
          <mxGeometry x="3900" y="600" width="40" height="80" as="geometry" />
        </mxCell>
        <mxCell id="5B_4mtcaILTxM5lqjwQF-163" value="ital" style="ellipse;shape=doubleEllipse;margin=3;whiteSpace=wrap;html=1;align=center;" parent="1" vertex="1">
          <mxGeometry x="3320" y="520" width="80" height="40" as="geometry" />
        </mxCell>
        <mxCell id="5B_4mtcaILTxM5lqjwQF-199" style="edgeStyle=orthogonalEdgeStyle;rounded=0;orthogonalLoop=1;jettySize=auto;html=1;exitX=0.5;exitY=1;exitDx=0;exitDy=0;entryX=0;entryY=1;entryDx=0;entryDy=0;" parent="1" target="5B_4mtcaILTxM5lqjwQF-28" edge="1">
          <mxGeometry relative="1" as="geometry">
            <Array as="points">
              <mxPoint x="3595" y="798" />
              <mxPoint x="80" y="798" />
              <mxPoint x="80" y="573" />
              <mxPoint x="100" y="573" />
            </Array>
            <mxPoint x="3595" y="577.51" as="sourcePoint" />
            <mxPoint x="100" y="620" as="targetPoint" />
          </mxGeometry>
        </mxCell>
        <mxCell id="5B_4mtcaILTxM5lqjwQF-164" value="fesztivál" style="rhombus;whiteSpace=wrap;html=1;" parent="1" vertex="1">
          <mxGeometry x="3560" y="520" width="70" height="70" as="geometry" />
        </mxCell>
        <mxCell id="5B_4mtcaILTxM5lqjwQF-201" style="edgeStyle=orthogonalEdgeStyle;rounded=0;orthogonalLoop=1;jettySize=auto;html=1;exitX=0.5;exitY=1;exitDx=0;exitDy=0;entryX=0.5;entryY=1;entryDx=0;entryDy=0;" parent="1" source="5B_4mtcaILTxM5lqjwQF-166" target="5B_4mtcaILTxM5lqjwQF-33" edge="1">
          <mxGeometry relative="1" as="geometry">
            <Array as="points">
              <mxPoint x="4145" y="680" />
              <mxPoint x="4375" y="680" />
            </Array>
          </mxGeometry>
        </mxCell>
        <mxCell id="5B_4mtcaILTxM5lqjwQF-166" value="nyelvtudás" style="rhombus;whiteSpace=wrap;html=1;fontStyle=0" parent="1" vertex="1">
          <mxGeometry x="4110" y="520" width="70" height="70" as="geometry" />
        </mxCell>
        <mxCell id="5B_4mtcaILTxM5lqjwQF-202" style="edgeStyle=orthogonalEdgeStyle;rounded=0;orthogonalLoop=1;jettySize=auto;html=1;exitX=0.5;exitY=1;exitDx=0;exitDy=0;entryX=0.5;entryY=1;entryDx=0;entryDy=0;" parent="1" source="5B_4mtcaILTxM5lqjwQF-168" target="5B_4mtcaILTxM5lqjwQF-36" edge="1">
          <mxGeometry relative="1" as="geometry">
            <Array as="points">
              <mxPoint x="4040" y="730" />
              <mxPoint x="4880" y="730" />
            </Array>
          </mxGeometry>
        </mxCell>
        <mxCell id="5B_4mtcaILTxM5lqjwQF-168" value="megkérdezett" style="rhombus;whiteSpace=wrap;html=1;" parent="1" vertex="1">
          <mxGeometry x="4000" y="520" width="70" height="70" as="geometry" />
        </mxCell>
        <mxCell id="5B_4mtcaILTxM5lqjwQF-170" value="" style="endArrow=none;html=1;rounded=0;exitX=0.5;exitY=0;exitDx=0;exitDy=0;entryX=0.5;entryY=1;entryDx=0;entryDy=0;" parent="1" source="5B_4mtcaILTxM5lqjwQF-12" target="iutqLcoYuN1xurHz5qFX-14" edge="1">
          <mxGeometry relative="1" as="geometry">
            <mxPoint x="4810" y="650" as="sourcePoint" />
            <mxPoint x="4970" y="650" as="targetPoint" />
          </mxGeometry>
        </mxCell>
        <mxCell id="5B_4mtcaILTxM5lqjwQF-171" value="" style="endArrow=none;html=1;rounded=0;exitX=0.5;exitY=0;exitDx=0;exitDy=0;entryX=0;entryY=0.5;entryDx=0;entryDy=0;" parent="1" source="5B_4mtcaILTxM5lqjwQF-36" target="iutqLcoYuN1xurHz5qFX-14" edge="1">
          <mxGeometry relative="1" as="geometry">
            <mxPoint x="4830" y="420" as="sourcePoint" />
            <mxPoint x="4990" y="420" as="targetPoint" />
          </mxGeometry>
        </mxCell>
        <mxCell id="5B_4mtcaILTxM5lqjwQF-172" value="" style="endArrow=none;html=1;rounded=0;exitX=0.5;exitY=0;exitDx=0;exitDy=0;entryX=0.5;entryY=1;entryDx=0;entryDy=0;" parent="1" source="5B_4mtcaILTxM5lqjwQF-62" target="5B_4mtcaILTxM5lqjwQF-25" edge="1">
          <mxGeometry relative="1" as="geometry">
            <mxPoint x="4530" y="620" as="sourcePoint" />
            <mxPoint x="4690" y="620" as="targetPoint" />
          </mxGeometry>
        </mxCell>
        <mxCell id="5B_4mtcaILTxM5lqjwQF-173" value="" style="endArrow=none;html=1;rounded=0;exitX=0.5;exitY=0;exitDx=0;exitDy=0;entryX=0.5;entryY=1;entryDx=0;entryDy=0;" parent="1" source="5B_4mtcaILTxM5lqjwQF-11" target="iutqLcoYuN1xurHz5qFX-14" edge="1">
          <mxGeometry relative="1" as="geometry">
            <mxPoint x="4800" y="620" as="sourcePoint" />
            <mxPoint x="4960" y="620" as="targetPoint" />
          </mxGeometry>
        </mxCell>
        <mxCell id="5B_4mtcaILTxM5lqjwQF-174" value="" style="endArrow=none;html=1;rounded=0;entryX=0.5;entryY=0;entryDx=0;entryDy=0;exitX=0.5;exitY=1;exitDx=0;exitDy=0;" parent="1" source="5B_4mtcaILTxM5lqjwQF-21" target="5B_4mtcaILTxM5lqjwQF-63" edge="1">
          <mxGeometry relative="1" as="geometry">
            <mxPoint x="4290" y="640" as="sourcePoint" />
            <mxPoint x="4450" y="640" as="targetPoint" />
          </mxGeometry>
        </mxCell>
        <mxCell id="5B_4mtcaILTxM5lqjwQF-175" value="" style="endArrow=none;html=1;rounded=0;exitX=0.5;exitY=0;exitDx=0;exitDy=0;entryX=0.5;entryY=1;entryDx=0;entryDy=0;" parent="1" source="5B_4mtcaILTxM5lqjwQF-21" target="iutqLcoYuN1xurHz5qFX-2" edge="1">
          <mxGeometry relative="1" as="geometry">
            <mxPoint x="4310" y="600" as="sourcePoint" />
            <mxPoint x="4480" y="440" as="targetPoint" />
          </mxGeometry>
        </mxCell>
        <mxCell id="5B_4mtcaILTxM5lqjwQF-176" value="" style="endArrow=none;html=1;rounded=0;exitX=0.5;exitY=0;exitDx=0;exitDy=0;entryX=0;entryY=0.5;entryDx=0;entryDy=0;" parent="1" source="5B_4mtcaILTxM5lqjwQF-33" target="iutqLcoYuN1xurHz5qFX-2" edge="1">
          <mxGeometry relative="1" as="geometry">
            <mxPoint x="4250" y="630" as="sourcePoint" />
            <mxPoint x="4410" y="630" as="targetPoint" />
          </mxGeometry>
        </mxCell>
        <mxCell id="5B_4mtcaILTxM5lqjwQF-177" value="" style="endArrow=none;html=1;rounded=0;exitX=0.5;exitY=1;exitDx=0;exitDy=0;entryX=0.5;entryY=0;entryDx=0;entryDy=0;" parent="1" source="iutqLcoYuN1xurHz5qFX-2" target="5B_4mtcaILTxM5lqjwQF-25" edge="1">
          <mxGeometry relative="1" as="geometry">
            <mxPoint x="4580" y="440" as="sourcePoint" />
            <mxPoint x="4740" y="440" as="targetPoint" />
          </mxGeometry>
        </mxCell>
        <mxCell id="5B_4mtcaILTxM5lqjwQF-178" value="fesztivál" style="rhombus;whiteSpace=wrap;html=1;" parent="1" vertex="1">
          <mxGeometry x="5560" y="520" width="70" height="70" as="geometry" />
        </mxCell>
        <mxCell id="5B_4mtcaILTxM5lqjwQF-180" value="" style="endArrow=none;html=1;rounded=0;exitX=0.5;exitY=0;exitDx=0;exitDy=0;entryX=0.5;entryY=1;entryDx=0;entryDy=0;" parent="1" source="5B_4mtcaILTxM5lqjwQF-19" target="5B_4mtcaILTxM5lqjwQF-24" edge="1">
          <mxGeometry relative="1" as="geometry">
            <mxPoint x="5270" y="720" as="sourcePoint" />
            <mxPoint x="5430" y="720" as="targetPoint" />
          </mxGeometry>
        </mxCell>
        <mxCell id="5B_4mtcaILTxM5lqjwQF-181" value="" style="endArrow=none;html=1;rounded=0;entryX=0.5;entryY=0;entryDx=0;entryDy=0;exitX=1;exitY=0.5;exitDx=0;exitDy=0;" parent="1" source="iutqLcoYuN1xurHz5qFX-14" target="5B_4mtcaILTxM5lqjwQF-178" edge="1">
          <mxGeometry relative="1" as="geometry">
            <mxPoint x="5320" y="470" as="sourcePoint" />
            <mxPoint x="5480" y="470" as="targetPoint" />
          </mxGeometry>
        </mxCell>
        <mxCell id="5B_4mtcaILTxM5lqjwQF-182" value="" style="endArrow=none;html=1;rounded=0;exitX=0.5;exitY=1;exitDx=0;exitDy=0;entryX=0.5;entryY=0;entryDx=0;entryDy=0;" parent="1" source="iutqLcoYuN1xurHz5qFX-14" target="5B_4mtcaILTxM5lqjwQF-24" edge="1">
          <mxGeometry relative="1" as="geometry">
            <mxPoint x="5210" y="450" as="sourcePoint" />
            <mxPoint x="5370" y="450" as="targetPoint" />
          </mxGeometry>
        </mxCell>
        <mxCell id="5B_4mtcaILTxM5lqjwQF-183" value="" style="endArrow=none;html=1;rounded=0;exitX=0.5;exitY=1;exitDx=0;exitDy=0;entryX=0.5;entryY=0;entryDx=0;entryDy=0;" parent="1" source="5B_4mtcaILTxM5lqjwQF-11" target="5B_4mtcaILTxM5lqjwQF-66" edge="1">
          <mxGeometry relative="1" as="geometry">
            <mxPoint x="4920" y="790" as="sourcePoint" />
            <mxPoint x="5080" y="790" as="targetPoint" />
          </mxGeometry>
        </mxCell>
        <mxCell id="5B_4mtcaILTxM5lqjwQF-184" value="" style="endArrow=none;html=1;rounded=0;exitX=0.5;exitY=0;exitDx=0;exitDy=0;entryX=0.5;entryY=1;entryDx=0;entryDy=0;" parent="1" source="5B_4mtcaILTxM5lqjwQF-3" target="5B_4mtcaILTxM5lqjwQF-24" edge="1">
          <mxGeometry relative="1" as="geometry">
            <mxPoint x="5500" y="680" as="sourcePoint" />
            <mxPoint x="5443" y="545" as="targetPoint" />
          </mxGeometry>
        </mxCell>
        <mxCell id="5B_4mtcaILTxM5lqjwQF-185" value="" style="endArrow=none;html=1;rounded=0;entryX=0.5;entryY=1;entryDx=0;entryDy=0;exitX=0.5;exitY=0;exitDx=0;exitDy=0;" parent="1" source="5B_4mtcaILTxM5lqjwQF-65" target="5B_4mtcaILTxM5lqjwQF-12" edge="1">
          <mxGeometry relative="1" as="geometry">
            <mxPoint x="5100" y="580" as="sourcePoint" />
            <mxPoint x="5270" y="890" as="targetPoint" />
          </mxGeometry>
        </mxCell>
        <mxCell id="5B_4mtcaILTxM5lqjwQF-186" value="" style="endArrow=none;html=1;rounded=0;exitX=0.5;exitY=0;exitDx=0;exitDy=0;entryX=0.5;entryY=1;entryDx=0;entryDy=0;" parent="1" source="5B_4mtcaILTxM5lqjwQF-14" target="5B_4mtcaILTxM5lqjwQF-24" edge="1">
          <mxGeometry relative="1" as="geometry">
            <mxPoint x="5140" y="910" as="sourcePoint" />
            <mxPoint x="5300" y="910" as="targetPoint" />
          </mxGeometry>
        </mxCell>
        <mxCell id="5B_4mtcaILTxM5lqjwQF-187" value="" style="endArrow=none;html=1;rounded=0;exitX=0.5;exitY=1;exitDx=0;exitDy=0;entryX=0.5;entryY=0;entryDx=0;entryDy=0;" parent="1" source="iutqLcoYuN1xurHz5qFX-10" target="iutqLcoYuN1xurHz5qFX-12" edge="1">
          <mxGeometry relative="1" as="geometry">
            <mxPoint x="2810" y="160" as="sourcePoint" />
            <mxPoint x="2730" y="280" as="targetPoint" />
          </mxGeometry>
        </mxCell>
        <mxCell id="5B_4mtcaILTxM5lqjwQF-188" value="" style="endArrow=none;html=1;rounded=0;exitX=0;exitY=0.5;exitDx=0;exitDy=0;entryX=0.5;entryY=0;entryDx=0;entryDy=0;" parent="1" source="iutqLcoYuN1xurHz5qFX-10" target="iutqLcoYuN1xurHz5qFX-17" edge="1">
          <mxGeometry relative="1" as="geometry">
            <mxPoint x="2210" y="190" as="sourcePoint" />
            <mxPoint x="2130" y="310" as="targetPoint" />
          </mxGeometry>
        </mxCell>
        <mxCell id="5B_4mtcaILTxM5lqjwQF-189" value="" style="endArrow=none;html=1;rounded=0;entryX=0.5;entryY=0;entryDx=0;entryDy=0;exitX=0;exitY=0.5;exitDx=0;exitDy=0;" parent="1" source="iutqLcoYuN1xurHz5qFX-10" target="iutqLcoYuN1xurHz5qFX-13" edge="1">
          <mxGeometry relative="1" as="geometry">
            <mxPoint x="2940" y="40" as="sourcePoint" />
            <mxPoint x="890" y="270" as="targetPoint" />
          </mxGeometry>
        </mxCell>
        <mxCell id="5B_4mtcaILTxM5lqjwQF-190" value="" style="endArrow=none;html=1;rounded=0;exitX=1;exitY=0.5;exitDx=0;exitDy=0;entryX=0.5;entryY=0;entryDx=0;entryDy=0;" parent="1" source="iutqLcoYuN1xurHz5qFX-10" target="iutqLcoYuN1xurHz5qFX-2" edge="1">
          <mxGeometry relative="1" as="geometry">
            <mxPoint x="4150" y="60" as="sourcePoint" />
            <mxPoint x="4070" y="180" as="targetPoint" />
          </mxGeometry>
        </mxCell>
        <mxCell id="5B_4mtcaILTxM5lqjwQF-191" value="" style="endArrow=none;html=1;rounded=0;exitX=0.5;exitY=1;exitDx=0;exitDy=0;entryX=0.5;entryY=0;entryDx=0;entryDy=0;" parent="1" source="iutqLcoYuN1xurHz5qFX-10" target="iutqLcoYuN1xurHz5qFX-11" edge="1">
          <mxGeometry relative="1" as="geometry">
            <mxPoint x="3280" y="50" as="sourcePoint" />
            <mxPoint x="3200" y="170" as="targetPoint" />
          </mxGeometry>
        </mxCell>
        <mxCell id="5B_4mtcaILTxM5lqjwQF-192" value="" style="endArrow=none;html=1;rounded=0;entryX=0.5;entryY=0;entryDx=0;entryDy=0;exitX=0;exitY=0.5;exitDx=0;exitDy=0;" parent="1" source="iutqLcoYuN1xurHz5qFX-10" target="iutqLcoYuN1xurHz5qFX-16" edge="1">
          <mxGeometry relative="1" as="geometry">
            <mxPoint x="2940" y="40" as="sourcePoint" />
            <mxPoint x="1730" y="280" as="targetPoint" />
          </mxGeometry>
        </mxCell>
        <mxCell id="5B_4mtcaILTxM5lqjwQF-193" value="" style="endArrow=none;html=1;rounded=0;exitX=1;exitY=0.5;exitDx=0;exitDy=0;entryX=0.5;entryY=0;entryDx=0;entryDy=0;" parent="1" source="iutqLcoYuN1xurHz5qFX-10" target="iutqLcoYuN1xurHz5qFX-14" edge="1">
          <mxGeometry relative="1" as="geometry">
            <mxPoint x="4820" y="180" as="sourcePoint" />
            <mxPoint x="4740" y="300" as="targetPoint" />
          </mxGeometry>
        </mxCell>
        <mxCell id="5B_4mtcaILTxM5lqjwQF-194" value="" style="endArrow=none;html=1;rounded=0;exitX=1;exitY=0.5;exitDx=0;exitDy=0;entryX=0.5;entryY=0;entryDx=0;entryDy=0;" parent="1" source="iutqLcoYuN1xurHz5qFX-10" target="iutqLcoYuN1xurHz5qFX-15" edge="1">
          <mxGeometry relative="1" as="geometry">
            <mxPoint x="4060" y="50" as="sourcePoint" />
            <mxPoint x="3980" y="170" as="targetPoint" />
          </mxGeometry>
        </mxCell>
        <mxCell id="5B_4mtcaILTxM5lqjwQF-200" style="edgeStyle=orthogonalEdgeStyle;rounded=0;orthogonalLoop=1;jettySize=auto;html=1;exitX=0.5;exitY=1;exitDx=0;exitDy=0;entryX=0;entryY=0.5;entryDx=0;entryDy=0;" parent="1" source="5B_4mtcaILTxM5lqjwQF-178" target="5B_4mtcaILTxM5lqjwQF-28" edge="1">
          <mxGeometry relative="1" as="geometry">
            <Array as="points">
              <mxPoint x="5595" y="870" />
              <mxPoint x="50" y="870" />
              <mxPoint x="50" y="555" />
            </Array>
          </mxGeometry>
        </mxCell>
        <mxCell id="CFgW82Pg5nwsIuctWofr-1" value="" style="endArrow=none;html=1;rounded=0;exitX=0.5;exitY=0;exitDx=0;exitDy=0;entryX=0.5;entryY=1;entryDx=0;entryDy=0;" parent="1" source="5B_4mtcaILTxM5lqjwQF-1" target="iutqLcoYuN1xurHz5qFX-13" edge="1">
          <mxGeometry width="50" height="50" relative="1" as="geometry">
            <mxPoint x="530" y="490" as="sourcePoint" />
            <mxPoint x="580" y="440" as="targetPoint" />
          </mxGeometry>
        </mxCell>
        <mxCell id="CFgW82Pg5nwsIuctWofr-2" value="" style="endArrow=none;html=1;rounded=0;exitX=0.5;exitY=0;exitDx=0;exitDy=0;entryX=0.5;entryY=1;entryDx=0;entryDy=0;" parent="1" source="iutqLcoYuN1xurHz5qFX-5" target="iutqLcoYuN1xurHz5qFX-13" edge="1">
          <mxGeometry width="50" height="50" relative="1" as="geometry">
            <mxPoint x="530" y="490" as="sourcePoint" />
            <mxPoint x="580" y="440" as="targetPoint" />
          </mxGeometry>
        </mxCell>
        <mxCell id="CFgW82Pg5nwsIuctWofr-3" value="" style="endArrow=none;html=1;rounded=0;exitX=0.5;exitY=0;exitDx=0;exitDy=0;entryX=0.5;entryY=1;entryDx=0;entryDy=0;" parent="1" source="iutqLcoYuN1xurHz5qFX-6" target="iutqLcoYuN1xurHz5qFX-13" edge="1">
          <mxGeometry width="50" height="50" relative="1" as="geometry">
            <mxPoint x="530" y="490" as="sourcePoint" />
            <mxPoint x="580" y="440" as="targetPoint" />
          </mxGeometry>
        </mxCell>
        <mxCell id="CFgW82Pg5nwsIuctWofr-4" value="" style="endArrow=none;html=1;rounded=0;exitX=0.5;exitY=0;exitDx=0;exitDy=0;entryX=0.5;entryY=1;entryDx=0;entryDy=0;" parent="1" source="5B_4mtcaILTxM5lqjwQF-10" target="iutqLcoYuN1xurHz5qFX-16" edge="1">
          <mxGeometry width="50" height="50" relative="1" as="geometry">
            <mxPoint x="1090" y="610" as="sourcePoint" />
            <mxPoint x="1140" y="560" as="targetPoint" />
          </mxGeometry>
        </mxCell>
        <mxCell id="CFgW82Pg5nwsIuctWofr-5" value="" style="endArrow=none;html=1;rounded=0;exitX=0.5;exitY=0;exitDx=0;exitDy=0;entryX=0.5;entryY=1;entryDx=0;entryDy=0;" parent="1" source="5B_4mtcaILTxM5lqjwQF-2" target="iutqLcoYuN1xurHz5qFX-16" edge="1">
          <mxGeometry width="50" height="50" relative="1" as="geometry">
            <mxPoint x="1090" y="610" as="sourcePoint" />
            <mxPoint x="1140" y="560" as="targetPoint" />
          </mxGeometry>
        </mxCell>
        <mxCell id="CFgW82Pg5nwsIuctWofr-6" value="" style="endArrow=none;html=1;rounded=0;exitX=0.5;exitY=0;exitDx=0;exitDy=0;entryX=0.5;entryY=1;entryDx=0;entryDy=0;" parent="1" source="5B_4mtcaILTxM5lqjwQF-4" target="iutqLcoYuN1xurHz5qFX-16" edge="1">
          <mxGeometry width="50" height="50" relative="1" as="geometry">
            <mxPoint x="1090" y="610" as="sourcePoint" />
            <mxPoint x="1140" y="560" as="targetPoint" />
          </mxGeometry>
        </mxCell>
        <mxCell id="CFgW82Pg5nwsIuctWofr-7" value="" style="endArrow=none;html=1;rounded=0;exitX=0.5;exitY=0;exitDx=0;exitDy=0;entryX=0.5;entryY=1;entryDx=0;entryDy=0;" parent="1" source="5B_4mtcaILTxM5lqjwQF-6" target="iutqLcoYuN1xurHz5qFX-16" edge="1">
          <mxGeometry width="50" height="50" relative="1" as="geometry">
            <mxPoint x="1090" y="610" as="sourcePoint" />
            <mxPoint x="1140" y="560" as="targetPoint" />
          </mxGeometry>
        </mxCell>
        <mxCell id="h4QeC2Lf1z9tkQLtF-2i-2" value="" style="endArrow=none;dashed=1;html=1;rounded=0;entryX=0.714;entryY=0.714;entryDx=0;entryDy=0;entryPerimeter=0;" edge="1" parent="1">
          <mxGeometry width="50" height="50" relative="1" as="geometry">
            <mxPoint x="1380" y="563" as="sourcePoint" />
            <mxPoint x="1409.98" y="562.9799999999999" as="targetPoint" />
          </mxGeometry>
        </mxCell>
        <mxCell id="h4QeC2Lf1z9tkQLtF-2i-3" value="" style="endArrow=none;dashed=1;html=1;rounded=0;entryX=0.714;entryY=0.714;entryDx=0;entryDy=0;entryPerimeter=0;" edge="1" parent="1">
          <mxGeometry width="50" height="50" relative="1" as="geometry">
            <mxPoint x="2180" y="566.02" as="sourcePoint" />
            <mxPoint x="2209.98" y="565.9999999999999" as="targetPoint" />
          </mxGeometry>
        </mxCell>
        <mxCell id="h4QeC2Lf1z9tkQLtF-2i-4" value="" style="endArrow=none;dashed=1;html=1;rounded=0;entryX=0.714;entryY=0.714;entryDx=0;entryDy=0;entryPerimeter=0;" edge="1" parent="1">
          <mxGeometry width="50" height="50" relative="1" as="geometry">
            <mxPoint x="2880" y="566.02" as="sourcePoint" />
            <mxPoint x="2909.98" y="565.9999999999999" as="targetPoint" />
          </mxGeometry>
        </mxCell>
        <mxCell id="h4QeC2Lf1z9tkQLtF-2i-5" value="" style="endArrow=none;dashed=1;html=1;rounded=0;entryX=0.714;entryY=0.714;entryDx=0;entryDy=0;entryPerimeter=0;" edge="1" parent="1">
          <mxGeometry width="50" height="50" relative="1" as="geometry">
            <mxPoint x="3580" y="568.02" as="sourcePoint" />
            <mxPoint x="3609.98" y="567.9999999999999" as="targetPoint" />
          </mxGeometry>
        </mxCell>
        <mxCell id="h4QeC2Lf1z9tkQLtF-2i-6" value="" style="endArrow=none;dashed=1;html=1;rounded=0;entryX=0.714;entryY=0.714;entryDx=0;entryDy=0;entryPerimeter=0;" edge="1" parent="1">
          <mxGeometry width="50" height="50" relative="1" as="geometry">
            <mxPoint x="4020" y="566.02" as="sourcePoint" />
            <mxPoint x="4049.98" y="565.9999999999999" as="targetPoint" />
          </mxGeometry>
        </mxCell>
        <mxCell id="h4QeC2Lf1z9tkQLtF-2i-7" value="" style="endArrow=none;dashed=1;html=1;rounded=0;entryX=0.714;entryY=0.714;entryDx=0;entryDy=0;entryPerimeter=0;" edge="1" parent="1">
          <mxGeometry width="50" height="50" relative="1" as="geometry">
            <mxPoint x="4130" y="565.02" as="sourcePoint" />
            <mxPoint x="4159.98" y="564.9999999999999" as="targetPoint" />
          </mxGeometry>
        </mxCell>
        <mxCell id="h4QeC2Lf1z9tkQLtF-2i-8" value="" style="endArrow=none;dashed=1;html=1;rounded=0;entryX=0.714;entryY=0.714;entryDx=0;entryDy=0;entryPerimeter=0;" edge="1" parent="1">
          <mxGeometry width="50" height="50" relative="1" as="geometry">
            <mxPoint x="5580" y="566.02" as="sourcePoint" />
            <mxPoint x="5609.98" y="565.9999999999999" as="targetPoint" />
          </mxGeometry>
        </mxCell>
      </root>
    </mxGraphModel>
  </diagram>
</mxfile>
